<?xml version="1.0" standalone="no"?>
<!DOCTYPE svg PUBLIC "-//W3C//DTD SVG 20010904//EN"
 "http://www.w3.org/TR/2001/REC-SVG-20010904/DTD/svg10.dtd">
<svg version="1.0" xmlns="http://www.w3.org/2000/svg"
 width="427.000000pt" height="427.000000pt" viewBox="0 0 427.000000 427.000000"
 preserveAspectRatio="xMidYMid meet">

<g transform="translate(0.000000,427.000000) scale(0.100000,-0.100000)"
fill="#000000" stroke="none">
<path d="M1910 4220 c-395 -45 -775 -228 -1069 -514 -278 -272 -454 -597 -533
-986 -20 -101 -23 -143 -22 -345 0 -211 2 -241 27 -357 31 -145 69 -265 122
-386 20 -46 35 -85 33 -87 -2 -2 -24 3 -48 11 -129 45 -297 -47 -337 -185 -24
-84 -14 -137 42 -231 266 -439 716 -804 1215 -983 236 -84 452 -124 725 -134
844 -28 1645 410 2085 1141 86 142 97 199 60 298 -51 136 -220 216 -345 164
-41 -17 -48 -12 -31 23 47 91 108 310 132 476 23 153 15 469 -15 605 -77 348
-199 598 -421 863 -250 298 -640 524 -1050 607 -118 24 -436 35 -570 20z m484
-46 c531 -82 971 -367 1266 -819 173 -266 266 -568 277 -901 12 -347 -40 -591
-185 -884 -81 -164 -132 -222 -208 -238 -137 -30 -254 65 -254 205 0 49 6 67
36 118 153 251 226 576 195 855 -22 189 -62 332 -138 485 -211 425 -610 708
-1087 771 -381 51 -794 -80 -1096 -345 -71 -63 -193 -205 -246 -288 -47 -73
-125 -238 -152 -323 -90 -277 -89 -589 5 -875 29 -91 107 -252 158 -328 28
-41 35 -62 35 -100 0 -164 -169 -268 -312 -190 -41 22 -59 42 -105 117 -106
171 -190 386 -234 596 -30 150 -38 442 -14 600 58 398 232 748 510 1025 278
279 610 450 994 515 140 24 416 26 555 4z m28 -469 c602 -136 1032 -644 1065
-1259 14 -264 -58 -545 -199 -780 -38 -63 -43 -78 -42 -131 0 -73 25 -125 86
-182 57 -52 103 -67 189 -61 l68 5 -59 -72 c-214 -262 -508 -463 -836 -571
-196 -64 -341 -87 -559 -88 -142 0 -205 4 -300 21 -426 77 -764 263 -1054 581
l-83 92 60 -6 c154 -16 282 100 282 256 0 38 -10 62 -56 141 -151 252 -208
454 -207 734 0 138 3 176 27 278 30 130 61 218 111 319 186 370 515 629 920
723 85 20 128 23 288 24 166 1 201 -2 299 -24z m1628 -2122 c84 -35 134 -114
135 -213 0 -57 -5 -74 -39 -135 -95 -173 -235 -356 -388 -507 -417 -412 -963
-647 -1548 -665 -342 -11 -635 40 -945 164 -183 73 -305 143 -555 316 -89 61
-372 356 -455 474 -115 162 -145 218 -145 275 0 89 66 186 150 219 55 22 141
16 197 -12 40 -20 60 -42 115 -124 188 -278 418 -489 693 -636 367 -196 818
-261 1227 -179 518 105 951 411 1228 867 45 74 78 116 105 135 69 47 143 54
225 21z"/>
<path d="M1894 4106 c-67 -30 -103 -134 -75 -218 47 -142 244 -122 267 27 9
66 -3 119 -39 160 -26 30 -40 38 -77 41 -26 3 -58 -2 -76 -10z m95 -45 c43
-43 53 -171 16 -211 -22 -25 -66 -26 -93 -2 -40 35 -55 138 -27 192 23 44 71
54 104 21z"/>
<path d="M2180 4106 c0 -8 7 -17 16 -20 13 -5 15 -18 10 -79 -13 -143 -17
-167 -32 -167 -23 0 -16 -27 9 -34 44 -12 107 -7 107 8 0 8 -9 18 -21 21 -17
6 -20 14 -17 48 3 37 6 42 29 45 20 2 28 -2 32 -17 10 -39 35 -24 43 24 7 53
1 64 -26 47 -11 -7 -31 -12 -45 -12 -23 0 -25 3 -25 49 0 56 8 65 50 56 23 -5
30 -12 30 -31 0 -17 6 -24 20 -24 17 0 20 7 20 44 l0 43 -52 7 c-91 10 -148 8
-148 -8z"/>
<path d="M2647 4033 c-4 -3 -2 -12 5 -20 17 -21 -69 -233 -94 -233 -34 0 -18
-29 28 -50 26 -11 50 -20 55 -20 13 0 11 38 -3 42 -8 3 -6 18 7 51 10 26 20
47 24 47 20 0 101 -36 100 -44 -2 -37 -28 -81 -50 -86 -38 -9 -28 -32 24 -53
35 -15 51 -17 59 -9 8 8 8 15 -1 26 -16 19 64 217 91 224 10 2 18 8 18 13 0 5
1 12 3 15 1 3 -20 14 -48 25 -53 20 -74 13 -55 -17 9 -15 8 -27 -4 -56 -9 -21
-18 -38 -20 -38 -17 0 -96 41 -96 50 0 6 7 26 15 46 10 24 20 34 32 32 9 -2
19 4 20 12 2 10 -12 21 -39 33 -47 18 -61 21 -71 10z"/>
<path d="M1498 4009 c-26 -13 -36 -24 -31 -35 3 -8 12 -13 19 -10 11 4 14 -8
14 -54 0 -33 -4 -60 -8 -60 -4 0 -25 17 -45 38 -29 30 -34 41 -25 50 9 9 9 15
1 23 -8 8 -25 4 -62 -11 -53 -24 -63 -36 -33 -47 9 -4 47 -31 84 -62 72 -60
113 -125 88 -141 -7 -4 -10 -15 -7 -24 5 -13 13 -12 59 8 57 25 68 47 29 56
-46 11 -53 72 -29 259 4 31 -8 33 -54 10z"/>
<path d="M2997 3875 c-4 -8 -4 -21 -1 -29 3 -7 0 -51 -6 -97 -13 -94 -37 -139
-76 -139 -37 0 -29 -23 22 -59 49 -34 76 -31 56 6 -17 31 29 78 119 123 43 22
84 39 91 38 27 -6 16 29 -16 50 -37 25 -60 22 -51 -8 4 -13 -6 -24 -40 -45
-26 -15 -48 -25 -51 -23 -2 2 -1 28 3 56 5 46 8 52 29 52 31 0 31 23 -1 44
-78 50 -72 48 -78 31z"/>
<path d="M1164 3837 c-23 -18 -62 -47 -88 -65 l-48 -33 21 -32 c11 -18 28 -32
38 -32 17 0 18 4 6 47 -3 9 3 21 14 27 17 8 28 -2 87 -87 57 -81 66 -99 57
-114 -9 -15 -8 -20 3 -24 21 -8 106 54 99 72 -3 9 -13 12 -23 9 -19 -6 -42 19
-115 128 -38 57 -39 59 -20 73 16 12 21 12 40 -6 19 -18 24 -19 34 -6 10 12 8
21 -10 45 -28 39 -43 38 -95 -2z"/>
<path d="M3286 3661 c-4 -5 -4 -16 -1 -23 8 -19 -160 -172 -179 -165 -8 3 -19
0 -25 -7 -8 -9 3 -26 43 -65 61 -62 90 -80 129 -81 63 0 158 78 172 142 10 44
-14 98 -68 155 -51 54 -61 60 -71 44z m79 -112 c27 -52 -11 -130 -78 -163 -48
-22 -71 -20 -104 9 l-28 25 89 85 c49 46 93 82 98 79 4 -3 15 -18 23 -35z"/>
<path d="M901 3626 c-34 -36 -38 -72 -6 -59 21 7 186 -153 178 -173 -3 -7 -2
-18 2 -24 5 -8 23 3 51 31 45 44 48 65 9 55 -20 -5 -36 7 -97 75 -43 48 -73
89 -73 102 0 34 -27 31 -64 -7z"/>
<path d="M770 3477 c-56 -43 -66 -118 -24 -161 33 -32 62 -33 132 -4 l53 22
22 -22 c21 -21 21 -24 6 -50 -15 -26 -23 -28 -74 -20 -35 6 -29 -28 10 -51 42
-25 46 -23 86 31 40 56 39 95 -4 136 -39 38 -61 39 -129 10 -37 -16 -55 -19
-67 -11 -21 13 -25 44 -8 67 12 16 17 17 36 6 19 -10 26 -9 39 3 13 14 11 18
-19 36 -39 24 -39 24 -59 8z"/>
<path d="M3537 3383 c-4 -3 -7 -14 -7 -23 0 -10 -38 -41 -100 -79 -82 -51
-104 -60 -115 -51 -12 10 -16 9 -21 -4 -8 -20 81 -166 101 -166 32 0 66 21 63
38 -2 12 -11 16 -33 14 -22 -1 -35 4 -48 23 -22 30 -15 42 38 71 31 17 37 17
45 4 6 -8 8 -25 5 -38 -9 -38 4 -44 46 -20 39 22 51 56 18 50 -15 -2 -57 34
-48 41 29 23 69 47 78 47 6 0 18 -11 27 -25 16 -24 16 -27 -1 -45 -29 -32 -5
-47 34 -24 17 10 31 23 31 29 0 10 -96 165 -103 165 -2 0 -7 -3 -10 -7z"/>
<path d="M588 3183 c-40 -43 -79 -128 -66 -141 8 -8 15 -8 24 -1 18 15 224
-89 224 -113 0 -35 31 -18 51 29 21 49 14 78 -15 54 -11 -9 -22 -8 -50 6 -67
32 -43 53 60 53 60 0 65 2 74 26 15 39 13 47 -12 39 -13 -4 -51 -10 -85 -12
-54 -4 -63 -2 -63 12 0 9 -13 30 -29 46 -38 38 -78 38 -113 2z m110 -82 c6
-41 -13 -47 -68 -21 -27 13 -50 27 -50 31 0 4 12 17 26 28 26 21 28 21 58 3
18 -10 32 -28 34 -41z"/>
<path d="M3690 3083 c0 -14 -26 -28 -112 -61 -79 -30 -114 -39 -119 -31 -4 7
-14 9 -23 6 -14 -6 -14 -11 2 -54 19 -51 52 -72 52 -33 0 33 77 54 87 23 3 -7
-17 -35 -43 -63 -43 -46 -47 -54 -38 -78 12 -35 44 -42 44 -10 0 15 15 39 39
62 37 36 41 38 72 27 43 -15 99 11 114 52 12 36 -33 170 -59 175 -10 2 -16 -3
-16 -15z m35 -94 c15 -45 -73 -93 -103 -56 -22 26 -16 39 28 57 60 24 67 24
75 -1z"/>
<path d="M464 2908 c-4 -6 -10 -24 -15 -42 -4 -17 -14 -55 -23 -84 -13 -48
-13 -54 1 -59 8 -3 19 0 23 7 12 20 231 -36 237 -61 11 -39 32 -18 52 49 36
125 36 120 -4 139 -28 13 -38 14 -48 4 -9 -10 -7 -16 12 -32 19 -16 22 -25 17
-54 -8 -39 -12 -40 -67 -23 -31 9 -39 16 -39 35 0 16 8 27 27 34 23 8 24 12
12 24 -21 21 -89 31 -89 13 0 -8 4 -18 10 -24 5 -5 7 -20 3 -32 -5 -21 -10
-23 -47 -17 -53 9 -58 15 -45 53 8 24 17 32 36 32 18 0 24 5 21 17 -4 20 -65
36 -74 21z"/>
<path d="M3520 2711 c0 -16 5 -42 11 -58 l11 -28 18 23 c29 35 56 22 64 -31 6
-33 3 -44 -10 -54 -21 -16 -34 -17 -34 -3 0 6 -9 10 -20 10 -18 0 -20 -5 -14
-42 3 -24 7 -49 10 -55 5 -17 34 -17 34 0 0 7 61 43 136 80 184 92 179 106
-49 143 -60 9 -115 23 -122 31 -22 21 -35 15 -35 -16z m228 -70 c22 -6 20 -8
-23 -29 -52 -25 -60 -23 -67 13 -5 23 -2 25 31 24 20 -1 47 -4 59 -8z"/>
<path d="M397 2623 c-4 -3 -7 -28 -7 -55 0 -50 13 -62 34 -32 11 14 21 12 97
-16 46 -18 88 -36 92 -40 10 -9 -116 -40 -159 -40 -15 0 -33 8 -40 18 -19 26
-32 5 -35 -57 -3 -57 11 -77 34 -48 7 9 53 25 102 37 174 40 197 49 193 72 -2
18 -30 33 -138 79 -81 35 -136 64 -138 73 -4 16 -23 21 -35 9z"/>
<path d="M3555 2356 c-9 -81 0 -121 32 -146 36 -28 81 -26 113 5 l27 25 18
-20 c22 -25 66 -26 94 -2 15 12 24 37 32 90 6 40 8 80 5 88 -7 19 -36 18 -36
-1 0 -14 -16 -15 -117 -9 -82 4 -121 11 -129 20 -22 27 -32 13 -39 -50z m126
-26 c23 0 25 -27 3 -58 -17 -24 -62 -30 -82 -10 -13 13 -16 60 -5 72 5 4 21 5
37 2 16 -3 37 -6 47 -6z m153 -9 c9 -14 -11 -58 -29 -65 -31 -11 -86 39 -70
64 8 13 92 13 99 1z"/>
<path d="M669 2270 c-12 -16 -34 -22 -128 -32 -90 -10 -115 -10 -119 0 -2 7
-12 12 -22 12 -17 0 -18 -6 -13 -52 3 -29 9 -57 13 -62 10 -11 30 1 30 18 0
14 27 19 167 32 62 6 74 4 79 -10 10 -27 34 -19 34 12 0 43 -12 102 -20 102
-4 0 -14 -9 -21 -20z"/>
<path d="M3536 2133 c-3 -16 -8 -38 -12 -50 -5 -19 -2 -23 14 -23 11 0 22 5
24 11 3 9 10 9 26 0 18 -9 21 -17 16 -39 -15 -61 -23 -73 -47 -70 -12 2 -22 9
-22 17 0 22 -22 24 -33 4 -18 -33 -25 -90 -12 -98 8 -5 16 -1 22 9 6 12 23 16
61 16 29 0 96 3 150 7 93 6 97 7 97 29 0 18 -22 37 -101 89 -55 36 -107 69
-115 72 -9 3 -20 16 -25 29 -12 32 -35 30 -43 -3z m162 -130 l47 -28 -54 -3
c-29 -2 -56 -1 -58 2 -7 6 5 56 13 56 3 0 26 -12 52 -27z"/>
<path d="M580 2049 c-68 -19 -117 -27 -138 -24 -32 6 -32 5 -26 -22 13 -54 24
-73 40 -73 12 0 15 6 11 21 -3 11 0 22 6 24 7 2 47 14 90 28 42 13 77 20 77
16 0 -4 -39 -48 -86 -98 -82 -86 -85 -91 -78 -125 7 -39 38 -51 46 -18 7 24
193 77 237 67 35 -8 35 -9 20 51 -9 33 -16 44 -31 44 -14 0 -18 -6 -16 -21 3
-19 -7 -25 -77 -45 -44 -13 -84 -24 -89 -24 -5 0 10 19 32 43 77 81 132 151
132 169 0 25 -23 23 -150 -13z"/>
<path d="M3425 1778 c-19 -40 -35 -83 -35 -96 0 -88 118 -180 204 -158 40 10
85 55 117 117 36 72 37 83 4 75 -36 -9 -225 86 -225 114 0 43 -32 18 -65 -52z
m141 -70 c57 -29 104 -59 104 -66 0 -7 -11 -24 -25 -37 -53 -54 -185 -8 -210
73 -6 22 10 82 23 82 3 0 52 -24 108 -52z"/>
<path d="M755 1735 c-22 -7 -70 -29 -107 -49 -37 -21 -72 -35 -78 -31 -6 4
-18 4 -26 1 -13 -5 -11 -13 10 -48 27 -45 52 -57 49 -23 -1 15 16 30 73 63 92
53 127 61 154 37 43 -39 18 -76 -90 -135 -62 -34 -78 -39 -94 -30 -35 22 -40
-5 -11 -58 27 -49 55 -61 55 -23 0 10 27 31 70 54 112 61 130 80 130 137 0 84
-57 129 -135 105z"/>
<path d="M1970 3690 c-415 -45 -811 -320 -1008 -699 -106 -205 -146 -370 -147
-606 0 -88 6 -191 13 -230 30 -163 112 -373 190 -488 42 -60 55 -109 50 -185
-7 -111 -60 -188 -165 -237 -29 -14 -53 -29 -53 -34 0 -5 46 -52 101 -105 226
-214 519 -366 838 -433 111 -23 150 -26 331 -27 218 -1 307 10 481 58 271 75
541 232 748 435 71 69 77 94 27 111 -165 54 -232 254 -139 408 104 170 143
264 189 457 21 87 29 323 15 427 -87 649 -612 1131 -1255 1152 -78 3 -175 1
-216 -4z m365 -46 c286 -49 502 -162 710 -372 255 -257 379 -589 361 -967 -11
-227 -75 -429 -194 -613 -21 -32 -44 -85 -52 -116 -31 -132 43 -285 171 -351
l31 -17 -43 -45 c-53 -53 -192 -165 -269 -215 -274 -176 -586 -267 -917 -268
-382 0 -721 114 -1038 351 -82 61 -191 169 -177 175 44 19 112 76 139 117 43
64 56 117 51 203 -5 74 -10 85 -91 218 -182 295 -218 747 -87 1084 165 425
526 728 970 812 121 23 315 25 435 4z"/>
<path d="M2030 3255 c-133 -38 -231 -120 -288 -242 -25 -53 -27 -68 -27 -178
0 -110 2 -125 28 -179 75 -160 222 -256 394 -256 172 0 316 92 392 250 35 72
36 79 36 186 0 107 -1 112 -38 186 -92 186 -308 288 -497 233z m274 -53 c91
-42 149 -100 194 -190 35 -73 37 -81 37 -176 0 -89 -3 -108 -28 -160 -55 -117
-136 -189 -255 -226 -332 -103 -632 254 -475 563 30 61 104 141 158 172 107
63 256 70 369 17z"/>
<path d="M2031 3176 c-42 -14 -151 -82 -151 -94 0 -4 35 -41 77 -84 l76 -77
28 20 c45 32 82 34 135 9 l46 -23 76 76 c75 75 76 76 57 97 -10 11 -47 35 -82
52 -77 37 -188 48 -262 24z"/>
<path d="M2343 2967 c-77 -79 -80 -83 -76 -122 6 -49 -26 -103 -74 -125 l-33
-15 0 -114 0 -113 38 6 c106 19 214 102 263 204 44 94 36 241 -19 332 l-18 29
-81 -82z"/>
<path d="M1821 2996 c-77 -166 -34 -339 113 -451 30 -23 138 -65 167 -65 5 0
9 51 9 114 l0 114 -31 12 c-41 17 -69 65 -69 115 0 37 -6 47 -84 124 l-83 83
-22 -46z"/>
<path d="M2120 2903 c-50 -18 -68 -84 -32 -116 21 -19 64 -22 92 -7 21 11 34
53 25 81 -5 15 -55 51 -67 48 -2 0 -10 -3 -18 -6z"/>
<path d="M2480 3205 c0 -31 3 -35 25 -35 22 0 25 4 25 35 0 31 -3 35 -25 35
-22 0 -25 -4 -25 -35z"/>
<path d="M2752 3203 c2 -30 7 -38 23 -38 16 0 21 8 23 38 3 34 1 37 -23 37
-24 0 -26 -3 -23 -37z"/>
<path d="M2920 3199 c0 -36 2 -40 23 -37 18 2 23 10 25 41 3 34 1 37 -22 37
-24 0 -26 -4 -26 -41z"/>
<path d="M2550 3194 c0 -31 3 -35 23 -32 17 2 23 11 25 36 3 29 1 32 -22 32
-23 0 -26 -4 -26 -36z"/>
<path d="M1207 3204 c-4 -4 -7 -22 -7 -41 0 -29 3 -33 26 -33 23 0 25 3 22 37
-3 36 -23 54 -41 37z"/>
<path d="M1392 3178 c4 -40 42 -53 51 -18 8 32 -2 50 -30 50 -21 0 -24 -4 -21
-32z"/>
<path d="M1462 3178 c2 -25 8 -34 26 -36 19 -3 22 1 22 32 0 32 -3 36 -26 36
-23 0 -25 -3 -22 -32z"/>
<path d="M1642 3178 c2 -25 8 -33 23 -33 15 0 21 8 23 33 3 29 1 32 -23 32
-24 0 -26 -3 -23 -32z"/>
<path d="M2760 3045 c0 -31 3 -35 25 -35 22 0 25 4 25 35 0 31 -3 35 -25 35
-22 0 -25 -4 -25 -35z"/>
<path d="M2647 3063 c-4 -3 -7 -19 -7 -35 0 -23 4 -28 25 -28 22 0 25 4 25 35
0 27 -4 35 -18 35 -10 0 -22 -3 -25 -7z"/>
<path d="M2970 3034 c0 -33 2 -35 28 -32 22 2 28 8 30 36 3 30 1 32 -27 32
-29 0 -31 -3 -31 -36z"/>
<path d="M1430 3024 c0 -31 3 -35 23 -32 17 2 23 11 25 36 3 29 1 32 -22 32
-23 0 -26 -4 -26 -36z"/>
<path d="M1350 3014 c0 -31 3 -35 23 -32 17 2 23 11 25 36 3 29 1 32 -22 32
-23 0 -26 -4 -26 -36z"/>
<path d="M1142 3008 c2 -25 8 -34 26 -36 19 -3 22 1 22 32 0 32 -3 36 -26 36
-23 0 -25 -3 -22 -32z"/>
<path d="M1210 3010 c0 -25 4 -30 25 -30 21 0 25 5 25 30 0 25 -4 30 -25 30
-21 0 -25 -5 -25 -30z"/>
<path d="M2650 2895 c0 -31 3 -35 25 -35 22 0 25 4 25 35 0 31 -3 35 -25 35
-22 0 -25 -4 -25 -35z"/>
<path d="M2980 2887 c0 -34 2 -35 46 -42 54 -8 67 1 62 41 -3 27 -6 29 -55 32
l-53 3 0 -34z"/>
<path d="M3137 2914 c-4 -4 -7 -20 -7 -36 0 -23 4 -28 26 -28 23 0 25 3 22 32
-3 31 -25 48 -41 32z"/>
<path d="M1404 2896 c-11 -29 1 -61 24 -64 20 -3 22 1 22 37 0 35 -3 41 -20
41 -11 0 -23 -6 -26 -14z"/>
<path d="M1464 2896 c-10 -26 1 -51 24 -54 19 -3 22 1 22 32 0 30 -4 36 -20
36 -11 0 -23 -6 -26 -14z"/>
<path d="M2807 2904 c-4 -4 -7 -20 -7 -36 0 -26 3 -29 28 -26 23 3 27 8 27 33
0 23 -5 31 -20 33 -12 2 -24 0 -28 -4z"/>
<path d="M2890 2875 c0 -31 3 -35 25 -35 22 0 25 4 25 35 0 31 -3 35 -25 35
-22 0 -25 -4 -25 -35z"/>
<path d="M1540 2865 c0 -31 3 -35 25 -35 22 0 25 4 25 35 0 31 -3 35 -25 35
-22 0 -25 -4 -25 -35z"/>
<path d="M1210 2855 c0 -32 3 -36 23 -33 17 2 22 10 22 33 0 23 -5 31 -22 33
-20 3 -23 -1 -23 -33z"/>
<path d="M1100 2850 c0 -25 4 -30 25 -30 21 0 25 5 25 30 0 25 -4 30 -25 30
-21 0 -25 -5 -25 -30z"/>
<path d="M950 2755 c0 -31 3 -35 25 -35 22 0 25 4 25 35 0 31 -3 35 -25 35
-22 0 -25 -4 -25 -35z"/>
<path d="M2847 2763 c-4 -3 -7 -19 -7 -35 0 -24 4 -28 30 -28 28 0 30 3 30 35
0 30 -3 35 -23 35 -13 0 -27 -3 -30 -7z"/>
<path d="M3057 2764 c-4 -4 -7 -20 -7 -36 0 -25 4 -28 31 -28 28 0 30 2 27 33
-2 23 -8 33 -23 35 -12 2 -24 0 -28 -4z"/>
<path d="M2727 2754 c-4 -4 -7 -20 -7 -36 0 -25 4 -29 23 -26 17 2 22 10 22
33 0 29 -22 45 -38 29z"/>
<path d="M1210 2705 c0 -31 3 -35 25 -35 22 0 25 4 25 35 0 31 -3 35 -25 35
-22 0 -25 -4 -25 -35z"/>
<path d="M1277 2713 c-7 -35 -2 -43 29 -43 21 0 24 5 24 35 0 30 -3 35 -24 35
-18 0 -25 -7 -29 -27z"/>
<path d="M3170 2585 c0 -31 3 -35 25 -35 22 0 25 4 25 35 0 31 -3 35 -25 35
-22 0 -25 -4 -25 -35z"/>
<path d="M3300 2585 c0 -31 3 -35 25 -35 22 0 25 4 25 35 0 31 -3 35 -25 35
-22 0 -25 -4 -25 -35z"/>
<path d="M3092 2578 c2 -25 8 -34 26 -36 19 -3 22 1 22 32 0 32 -3 36 -26 36
-23 0 -25 -3 -22 -32z"/>
<path d="M2930 2565 c0 -31 3 -35 25 -35 22 0 25 4 25 35 0 31 -3 35 -25 35
-22 0 -25 -4 -25 -35z"/>
<path d="M1537 2583 c-4 -3 -7 -19 -7 -35 0 -23 4 -28 25 -28 22 0 25 4 25 35
0 27 -4 35 -18 35 -10 0 -22 -3 -25 -7z"/>
<path d="M2614 2576 c-11 -29 1 -61 24 -64 20 -3 22 1 22 37 0 35 -3 41 -20
41 -11 0 -23 -6 -26 -14z"/>
<path d="M1650 2545 c0 -31 3 -35 25 -35 22 0 25 4 25 35 0 31 -3 35 -25 35
-22 0 -25 -4 -25 -35z"/>
<path d="M1380 2531 c0 -37 2 -41 26 -41 23 0 25 3 22 38 -2 30 -7 38 -25 40
-21 3 -23 -1 -23 -37z"/>
<path d="M994 2546 c-3 -8 -4 -25 -2 -38 2 -17 9 -23 28 -23 22 0 25 4 25 35
0 29 -4 36 -23 38 -13 2 -24 -3 -28 -12z"/>
<path d="M1345 2369 c-3 -8 -4 -293 -3 -634 l3 -620 90 -8 c312 -26 473 -84
609 -219 l79 -79 66 69 c132 137 312 203 626 229 l90 8 3 619 c1 449 -1 623
-9 632 -27 32 -263 7 -402 -43 -100 -35 -271 -135 -307 -179 -7 -8 -26 -24
-42 -36 l-30 -21 -41 40 c-102 97 -258 181 -406 220 -118 30 -317 44 -326 22z
m325 -59 c131 -37 300 -132 398 -223 l32 -31 0 -579 0 -579 -52 48 c-61 54
-198 122 -308 153 -70 19 -203 38 -310 44 l-45 2 -3 585 c-1 322 0 591 3 599
8 20 188 8 285 -19z m1198 -567 l-3 -598 -106 -7 c-89 -6 -161 -17 -259 -40
-22 -5 -17 9 45 122 140 256 186 350 173 350 -8 0 -40 -5 -72 -11 -32 -6 -60
-8 -63 -6 -2 3 57 128 132 277 75 150 134 275 131 278 -3 3 -46 -9 -95 -26
-49 -16 -91 -28 -94 -26 -3 4 29 180 48 262 5 21 11 22 85 22 l80 0 -2 -597z
m-202 560 c-52 -102 -186 -387 -182 -390 2 -2 34 1 70 8 37 6 70 9 73 6 4 -5
-188 -381 -264 -515 -14 -24 -22 -46 -19 -49 3 -3 38 4 78 16 40 11 78 21 84
21 11 0 -71 -288 -90 -318 -4 -7 -41 -29 -82 -49 -41 -20 -99 -59 -128 -85
-30 -26 -57 -48 -60 -48 -3 0 -6 258 -6 574 l0 574 53 48 c107 97 251 176 389
213 100 27 102 27 84 -6z"/>
<path d="M1720 1987 c-14 -7 -38 -33 -55 -59 l-30 -47 -63 0 c-53 -1 -67 -5
-87 -26 -33 -32 -32 -75 1 -141 l26 -52 -27 -36 c-16 -21 -29 -53 -32 -79 -4
-36 -1 -46 21 -67 21 -19 40 -25 92 -28 63 -4 65 -5 84 -42 22 -43 73 -90 98
-90 32 0 81 39 102 80 20 38 23 40 55 34 116 -21 171 67 110 175 l-25 43 25
29 c34 41 49 100 34 133 -16 33 -66 56 -126 56 -48 0 -49 1 -71 45 -20 41 -70
85 -97 85 -5 0 -21 -6 -35 -13z m68 -33 c23 -16 52 -64 52 -86 0 -8 -19 -19
-41 -25 -35 -9 -49 -8 -85 8 -24 10 -44 25 -44 33 0 22 59 86 79 86 9 0 27 -7
39 -16z m-175 -149 c-3 -43 -8 -55 -39 -84 l-37 -34 -18 24 c-20 26 -33 76
-27 105 4 25 46 45 88 42 l35 -3 -2 -50z m395 19 c13 -9 22 -24 22 -40 0 -31
-39 -104 -55 -104 -23 0 -74 66 -84 108 -8 40 -7 44 12 52 26 11 74 3 105 -16z
m-296 -2 c4 -4 -11 -17 -32 -30 -39 -22 -40 -22 -40 -3 0 39 11 53 39 46 14
-4 29 -9 33 -13z m152 -18 c10 -37 2 -40 -34 -14 -24 17 -29 25 -18 31 25 16
46 9 52 -17z m-52 -33 c26 -16 51 -39 57 -50 12 -21 15 -100 5 -125 -7 -17
-103 -76 -125 -76 -8 0 -38 16 -67 35 l-52 36 0 68 c0 75 5 83 75 119 52 27
53 27 107 -7z m-212 -113 l0 -41 -25 23 c-23 22 -24 25 -8 42 25 28 33 22 33
-24z m335 12 c15 -16 15 -22 5 -35 -22 -27 -40 -18 -40 20 0 40 9 44 35 15z
m-358 -62 c25 -27 32 -43 35 -83 l3 -50 -45 3 c-68 4 -90 19 -90 60 0 38 34
102 54 102 7 0 26 -15 43 -32z m418 -14 c48 -73 21 -134 -59 -134 -25 0 -47 4
-51 9 -12 20 16 103 43 126 35 31 46 31 67 -1z m-319 -66 c35 -21 36 -22 16
-31 -29 -13 -48 -3 -54 27 -3 14 -4 26 -2 26 1 0 20 -10 40 -22z m188 -16 c-4
-22 -12 -32 -24 -32 -25 0 -50 10 -50 21 0 8 72 50 78 45 1 -2 -1 -17 -4 -34z
m-26 -73 c4 -21 -57 -89 -79 -89 -34 0 -58 19 -80 61 -11 23 -19 43 -16 45 2
2 21 10 42 17 34 12 45 11 84 -4 25 -9 47 -23 49 -30z"/>
<path d="M1712 1688 c-7 -7 -12 -21 -12 -33 0 -12 5 -26 12 -33 29 -29 78 -7
78 35 0 35 -53 56 -78 31z"/>
<path d="M3932 1381 c-8 -4 -12 -21 -10 -37 2 -25 7 -29 32 -29 36 0 56 27 40
53 -13 19 -43 26 -62 13z"/>
<path d="M286 1341 c-19 -21 -13 -47 14 -61 25 -14 49 -2 56 26 12 47 -37 72
-70 35z"/>
<path d="M3820 1226 c-6 -8 -10 -25 -8 -38 2 -19 9 -23 38 -23 29 0 36 4 38
23 4 28 -14 52 -38 52 -10 0 -23 -7 -30 -14z"/>
<path d="M395 1194 c-20 -20 -16 -53 8 -68 39 -24 79 44 41 71 -23 17 -29 16
-49 -3z"/>
<path d="M3700 1061 c-16 -31 4 -63 37 -59 34 4 52 32 37 56 -16 26 -60 28
-74 3z"/>
<path d="M494 1015 c-7 -29 10 -55 36 -55 24 0 42 24 38 52 -2 18 -10 24 -35
26 -28 3 -33 -1 -39 -23z"/>
<path d="M3534 974 c-7 -3 -38 -30 -70 -60 -160 -151 -438 -323 -628 -389 -36
-13 -42 -12 -86 11 -85 45 -156 44 -186 -1 -14 -22 -14 -27 -1 -55 15 -29 15
-30 -9 -36 -20 -5 -22 -9 -13 -20 6 -8 22 -14 34 -14 20 0 24 -8 35 -62 14
-74 25 -98 45 -98 19 0 19 6 -5 92 -11 39 -17 74 -14 77 3 3 41 18 85 32 77
25 99 23 99 -7 0 -8 -12 -10 -38 -7 -46 6 -72 -14 -72 -57 0 -52 70 -78 118
-44 20 14 23 14 28 0 3 -9 15 -16 26 -16 12 0 18 5 16 13 -3 6 -15 43 -28 81
-22 67 -22 70 -4 83 40 29 81 0 68 -51 -5 -20 -1 -25 26 -35 35 -12 52 -7 44
13 -3 7 7 18 23 25 24 11 29 10 45 -11 11 -13 24 -34 29 -48 10 -24 11 -24 24
-6 8 11 21 16 30 13 21 -9 19 -20 -12 -51 -30 -31 -24 -44 12 -28 53 24 49 88
-6 99 -25 5 -35 17 -64 81 -19 41 -35 76 -35 77 0 2 32 22 71 46 68 41 72 42
85 24 20 -27 17 -32 -15 -27 -21 3 -33 -2 -45 -19 -9 -13 -16 -31 -16 -41 0
-41 98 -67 119 -30 8 14 12 15 22 5 13 -13 49 -18 49 -8 0 3 -7 17 -16 30 -11
18 -14 35 -9 65 5 32 4 40 -9 40 -8 0 -18 -5 -21 -11 -5 -6 -13 -2 -22 11 -8
12 -13 23 -12 25 2 1 27 20 54 40 28 21 56 42 62 47 9 7 15 6 18 -5 4 -8 -7
-27 -24 -45 -17 -17 -31 -37 -31 -45 0 -19 28 -43 73 -62 43 -18 51 -3 10 17
-37 18 -43 62 -12 79 20 10 25 8 46 -17 13 -16 23 -32 23 -36 0 -5 11 -8 25
-8 14 0 25 2 25 5 0 3 -22 36 -50 72 -27 36 -50 69 -50 73 0 3 13 19 29 34 33
31 69 30 56 -2 -14 -34 -10 -46 22 -55 43 -13 81 -1 95 28 8 19 14 22 24 14 7
-6 22 -9 33 -7 17 3 12 13 -40 71 -51 56 -59 70 -49 82 10 12 9 15 -6 14 -11
0 -24 -3 -30 -5z m36 -143 c-11 -27 -44 -50 -56 -38 -3 2 1 17 8 32 8 18 9 30
3 32 -35 12 -39 22 -20 43 l19 21 29 -30 c28 -27 29 -32 17 -60z m-336 -249
c8 -13 -23 -52 -40 -52 -17 0 -28 24 -20 45 6 16 51 21 60 7z m-216 -34 c24
-31 23 -54 -3 -66 -14 -7 -28 -12 -30 -12 -5 0 -36 63 -33 65 10 7 44 24 49
25 4 0 11 -6 17 -12z m-281 -19 c42 -16 33 -28 -38 -49 -82 -25 -102 -21 -97
17 5 48 59 61 135 32z m93 -129 c0 -16 -47 -60 -63 -60 -14 0 -37 19 -37 31 0
4 7 15 16 23 17 18 84 22 84 6z"/>
<path d="M770 901 c0 -10 9 -25 21 -32 21 -14 21 -14 1 -39 -17 -20 -22 -22
-35 -12 -13 11 -17 10 -26 -7 -13 -24 -14 -110 -2 -130 13 -21 24 4 16 39 -10
45 18 50 55 10 29 -31 30 -34 15 -56 -14 -21 -12 -54 4 -54 3 1 28 30 56 65
27 36 55 65 60 65 6 0 21 -9 33 -21 l23 -20 -45 -65 c-41 -58 -50 -94 -25 -94
5 0 30 32 56 70 36 55 50 69 65 64 28 -8 23 22 -8 43 -14 10 -77 57 -139 106
-63 48 -117 87 -120 87 -3 0 -5 -8 -5 -19z m129 -118 c13 -8 -37 -44 -57 -41
-41 5 -51 33 -22 63 l24 25 25 -22 c14 -13 28 -24 30 -25z"/>
<path d="M1272 668 c-7 -7 -12 -25 -12 -40 0 -25 -2 -27 -19 -18 -27 14 -31
13 -31 -6 0 -9 7 -22 16 -29 14 -10 12 -19 -19 -82 -32 -62 -34 -73 -22 -89
12 -17 16 -12 50 61 20 44 38 81 39 82 2 3 156 -57 165 -63 2 -2 0 -15 -3 -29
l-7 -26 -25 31 c-44 52 -104 37 -104 -25 0 -39 36 -75 74 -75 22 0 26 -4 21
-19 -3 -10 1 -23 9 -30 11 -9 19 3 46 69 18 44 38 80 44 80 24 0 116 -31 116
-39 0 -4 -19 -7 -42 -7 -40 1 -43 -1 -40 -24 1 -14 2 -42 2 -62 -1 -25 6 -43
22 -57 25 -24 27 -25 64 -11 22 9 29 7 41 -10 8 -11 18 -20 22 -20 4 0 15 33
24 73 23 95 27 101 67 92 30 -7 32 -9 26 -38 -16 -79 -18 -134 -6 -142 18 -11
27 9 34 77 9 73 14 88 33 88 8 0 13 7 11 17 -2 13 -29 22 -113 39 -131 26
-219 48 -267 68 -27 12 -37 24 -47 55 -6 23 -29 59 -50 81 -30 32 -45 40 -72
40 -19 0 -40 -5 -47 -12z m116 -50 c7 -7 23 -29 34 -51 l20 -40 -29 8 c-51 12
-121 47 -127 61 -3 8 3 23 14 34 16 16 24 18 47 9 15 -5 33 -15 41 -21z m10
-180 c21 -18 13 -36 -19 -43 -25 -6 -36 -2 -53 15 -21 21 -21 21 -2 36 20 14
49 11 74 -8z m286 -26 c8 -13 -15 -95 -32 -114 -23 -28 -102 -22 -102 7 0 16
25 26 45 19 10 -4 15 0 15 10 0 10 -11 19 -30 23 -29 5 -38 17 -22 27 4 3 24
1 44 -3 33 -8 37 -6 42 15 6 23 30 32 40 16z"/>
<path d="M2168 403 c-76 -2 -138 -7 -138 -11 0 -17 25 -32 51 -32 38 0 45 -16
14 -36 -33 -21 -32 -39 5 -76 26 -25 36 -29 64 -24 28 5 34 3 39 -14 3 -11 12
-20 21 -20 13 0 16 14 16 90 l0 90 34 0 33 0 7 -69 c7 -81 12 -97 33 -105 14
-6 15 5 8 89 -6 82 -5 95 9 95 10 0 13 6 10 15 -4 10 -17 14 -38 13 -17 -1
-93 -4 -168 -5z m32 -76 c0 -42 -28 -70 -66 -65 -35 4 -41 20 -12 33 17 7 22
18 21 38 -2 24 2 27 28 27 26 0 29 -3 29 -33z"/>
</g>
</svg>
